<?xml version="1.0" encoding="utf-8"?><!-- Generator: Adobe Illustrator 27.8.1, SVG Export Plug-In . SVG Version: 6.00 Build 0)  --><svg xmlns="http://www.w3.org/2000/svg" xmlns:xlink="http://www.w3.org/1999/xlink" version="1.1" x="0px" y="0px" viewBox="13.2 11.2 38 42" enable-background="new 0 0 64 64" xml:space="preserve">
<g id="api-outline-bot_x5F_s1g1_x5F_s2g1_x5F_s3g1_x5F_s4g2_x5F_background">
	<g id="Layer_5">
	</g>
	
		<path fill="#FFFFFF" stroke="#0B141AFF" stroke-width="1" stroke-linecap="round" stroke-linejoin="round" stroke-miterlimit="10" d="   M47.602,34.686l-1.329-0.767c0.079-0.609,0.133-1.226,0.133-1.856c0-0.67-0.062-1.325-0.15-1.971l1.347-0.777   c2.619-1.512,3.516-4.86,2.004-7.479c-1.512-2.619-4.86-3.516-7.479-2.004l-1.385,0.8c-0.997-0.763-2.089-1.406-3.267-1.891v-1.595   c0-3.024-2.451-5.475-5.475-5.475c-3.024,0-5.475,2.451-5.475,5.475v1.595c-1.178,0.485-2.27,1.127-3.267,1.891l-1.385-0.8   c-2.619-1.512-5.967-0.615-7.479,2.004c-1.512,2.619-0.615,5.967,2.004,7.479l1.346,0.777c-0.089,0.646-0.15,1.301-0.15,1.971   c0,0.63,0.054,1.247,0.133,1.856l-1.329,0.767c-2.619,1.512-3.516,4.86-2.004,7.479v0c1.512,2.619,4.86,3.516,7.479,2.004   l1.291-0.745c1.021,0.795,2.147,1.461,3.361,1.961v1.47c0,3.024,2.451,5.475,5.475,5.475c3.024,0,5.475-2.451,5.475-5.475v-1.47   c1.215-0.5,2.34-1.166,3.361-1.961l1.291,0.745c2.619,1.512,5.967,0.615,7.479-2.004v0C51.118,39.546,50.221,36.198,47.602,34.686z   "/>
</g>
<g id="api-outline-top_x5F_s1g1_x5F_s2g2_x5F_s3g1_x5F_s4g1">
	<path fill="none" stroke="#00A884FF" stroke-width="1" stroke-linecap="round" stroke-linejoin="round" stroke-miterlimit="10" d="   M29.111,37.25L29.111,37.25c-2.27,0-4.111-1.84-4.111-4.111v-2.278c0-2.27,1.84-4.111,4.111-4.111h0   c0.629,0,1.139,0.51,1.139,1.139v8.222C30.25,36.74,29.74,37.25,29.111,37.25z"/>
	
		<line fill="none" stroke="#00A884FF" stroke-width="1" stroke-linecap="round" stroke-linejoin="round" stroke-miterlimit="10" x1="25" y1="32" x2="21.5" y2="32"/>
	<path fill="none" stroke="#00A884FF" stroke-width="1" stroke-linecap="round" stroke-linejoin="round" stroke-miterlimit="10" d="   M36.639,26.75L36.639,26.75c2.27,0,4.111,1.84,4.111,4.111v2.278c0,2.27-1.84,4.111-4.111,4.111h0c-0.629,0-1.139-0.51-1.139-1.139   v-8.222C35.5,27.26,36.01,26.75,36.639,26.75z"/>
	
		<line fill="none" stroke="#00A884FF" stroke-width="1" stroke-linecap="round" stroke-linejoin="round" stroke-miterlimit="10" x1="40.75" y1="32" x2="42.5" y2="32"/>
	
		<line fill="none" stroke="#00A884FF" stroke-width="1" stroke-linecap="round" stroke-linejoin="round" stroke-miterlimit="10" x1="33.289" y1="29.375" x2="35.5" y2="29.375"/>
	
		<line fill="none" stroke="#00A884FF" stroke-width="1" stroke-linecap="round" stroke-linejoin="round" stroke-miterlimit="10" x1="33.289" y1="34.625" x2="35.5" y2="34.625"/>
</g>
</svg>